<?xml version="1.0" encoding="utf-8"?>
<!-- Generator: Adobe Illustrator 25.4.1, SVG Export Plug-In . SVG Version: 6.00 Build 0)  -->
<svg version="1.1" id="Layer_1" xmlns="http://www.w3.org/2000/svg" xmlns:xlink="http://www.w3.org/1999/xlink" x="0px" y="0px"
	 viewBox="0 0 200 200" style="enable-background:new 0 0 200 200;" xml:space="preserve">
<style type="text/css">
	.st0{fill:#F6B33B;}
	.st1{fill:#9B2C2C;}
</style>
<rect class="st0" width="200" height="200"/>
<g>
	<path class="st1" d="M125.5,63.2h5.5l5.4-0.1c4.3-6.2,8-16.2,10.2-25.9l0.5-0.1l7,2.3l0.1,0.7c-1,3.7-2.1,7.2-3.3,10.4h6.4l7.3-0.2
		l0.4,0.5V58l-0.4,0.5l-2.4-0.1c-0.5,5.5-1.2,11.2-2.9,16.5c-0.8,2.4-1.8,4.8-3,7.1c2.6,3.4,5.8,6.3,9.8,9.3l-5.4,6.1
		c-0.3,0.3-0.5,0.5-0.8,0.5s-0.6-0.1-1-0.5c-2.8-2.5-5.3-5.2-7.4-8.1c-2.6,3.4-5.8,6.3-9.7,8.7c-0.3,0.2-0.5,0.3-0.6,0.3
		c-0.3,0-0.4-0.1-0.6-0.3l-4.4-4.4l-2.8,3.5l-0.6,0.4c-2.6-1.5-4.8-2.6-6.9-3.6c-4.6,2.9-10.1,3.9-16.9,4.4
		c-1.2,0.1-1.5-0.2-1.8-0.6l-3.2-5.3c7.2-0.1,11.8-0.6,15.1-1.9c-1.2-0.3-2.3-0.7-3.4-1c-0.3,0.4-0.6,0.7-0.8,1l-0.6,0.3l-6-1.8
		l-0.3-0.6c1.4-1.8,2.7-3.4,3.8-5c-2.5,0.1-4.8,0.1-6.7,0.1l-0.6-0.4l-1.2-5.3l0.5-0.5c3.5,0.1,7.5,0.2,11.6,0.2
		c0.5-0.8,0.8-1.6,1.3-2.4h-2.9l-6.7,0.2l-0.5-0.5l0.3-5.4v-1.2l-0.2-4.6l0.5-0.4l6.2,0.1h4.8V61h-2.3l-8.4,0.2l-0.5-0.4l0.2-7
		l-3.4,0.1l-0.4-0.3v-4.9l0.3-0.5l3.4,0.1v-0.9l-0.2-5.8l0.5-0.4l8.7,0.2h1.9V38l0.4-0.5h6.8l0.4,0.5v3.2h2.8l8.4-0.2l0.5,0.5
		l-0.2,6v0.6l3.5-0.1l0.5,0.4v4.9l-0.3,0.4l-3.7-0.1l0.2,7.1l-0.6,0.4l-7.7-0.2h-3.4L125.5,63.2L125.5,63.2z M114.1,67.8v2.6h4.3
		v-2.6H114.1z M118.3,46.2h-4.1v2.5h4.1V46.2z M114.3,53.2V56h4.1v-2.8H114.3z M120,83c-0.5,0.7-0.8,1.4-1.3,2.1
		c1.7,0.4,3.4,0.8,5,1.4c1-1.1,1.9-2.3,2.6-3.6L120,83z M140.4,81c-0.1,0.8-0.5,1-1.3,1.1c-1.2,0.1-2.7,0.2-4.4,0.3
		c-0.9,2.3-2.2,4.5-3.8,6.4c2,0.7,3.9,1.5,5.8,2.3c3.9-2.4,7.4-5.4,10.2-9.1c-2.2-4.4-3.7-9.3-4.5-14.2c-0.5,0.8-0.8,0.9-1.2,0.9
		s-0.6-0.1-0.9-0.4l-2.8-2.6l-0.1,2.4v1.4l0.2,5.1l-0.5,0.5l-6.4-0.2h-5.9c-0.5,0.8-0.9,1.5-1.3,2.4c6.8-0.1,13.4-0.3,17.9-0.6
		L140.4,81z M129.4,48.7v-2.5h-4.3v2.5H129.4z M125.1,56h4.3v-2.8h-4.3C125.1,53.2,125.1,56,125.1,56z M125.1,70.3h4.4v-2.6h-4.4
		V70.3z M148.1,58.3c0.5,5.2,1.4,10.4,3.3,15.2c1.7-4.8,2.3-10.1,2.7-15.2H148.1z"/>
	<path class="st1" d="M153.6,137.2l9.8-0.2l0.4,0.3v7.5l-0.4,0.3l-9.8-0.2h-13.8l0.3,9.2c0,6.6-2.8,9-13.7,9c-1.3,0-1.4-0.1-1.7-0.8
		l-3.6-8.3c3,0,5.4-0.1,7.4-0.3c1.4-0.1,1.7-0.5,1.7-2v-6.9h-15.1l-9.7,0.2l-0.5-0.4v-7.3l0.4-0.4l9.8,0.2h15.1v-4.7l0.5-0.5h2.8
		c1.7-1.3,3.4-2.6,5.1-4.1h-12.8L117,128l-0.5-0.5v-7.2l0.4-0.4l8.9,0.2h18.4l5.2-0.4l3.7,3.7V116h-37.9v8.3h-9.3l0.3-8.4V114
		l-0.2-5.5l0.6-0.5l10.5,0.2H129v-6.6l0.5-0.5h8.6l0.5,0.5v6.6h14.3l9-0.2l0.5,0.5l-0.2,4.9v1.9l0.3,9h-8.6c0.2,0.5,0,1-0.8,1.7
		c-4.3,3.8-8.7,7.4-13.3,10.7v0.4h13.8V137.2z"/>
	<path class="st1" d="M68.6,50.6c8.9,1.4,15.9,3.4,24,6.2l0.1,0.6l-4.4,5.2l8.2-0.1L97,63v7l-0.5,0.5l-8.1-0.1v6.9l0.3,12.4
		c0,6.3-3.2,8.9-12.7,8.9c-1.3,0-1.4-0.1-1.7-0.8L71,90.4l0.1,3.5h-9.3v-3h-9.2v3.9h-9l0.3-9V80l-0.2-6.6l0.4-0.5l9.7,0.2h7l9.6-0.2
		l0.5,0.5L70.7,80v4.5l0.2,4.9c2.8,0,5.2-0.1,6.3-0.3c1.4-0.1,1.7-0.5,1.7-2.1V70.3H46.3l-10.7,0.2L35.1,70v-7.1l0.5-0.5l6.4,0.1
		l-3.5-6.1c11.1-1,17.1-3,20.1-6.9h-7.5l-10.7,0.2L40,49.3v-6.9l0.5-0.5l10.7,0.2h9.7c0.1-0.5,0.1-0.9,0.1-1.4v-3.4l0.5-0.5H70
		l0.5,0.5v4.8h10.6L91.6,42l0.5,0.5v6.9l-0.5,0.5l-10.7-0.2H69L68.6,50.6z M84,62.7c-3.7-1.4-7.5-2.7-11.3-3.7c-3-0.8-6.1-1.4-9.1-2
		c-4.3,3.4-9.7,5-15,5.7H84z M61.9,79.9h-9.2v4.3h9.2V79.9z"/>
	<path class="st1" d="M56.1,103.5l6.8-0.2l0.5,0.5l-0.2,7.5v10.8l0.2,7.2l-0.5,0.6l-6.8-0.2h-9.7v33.5h-8.6l0.3-21.9v-28.8l-0.2-8.6
		l0.4-0.5l6.9,0.2h10.9V103.5z M55.1,113.5v-3.3h-8.8v3.3H55.1z M46.3,122.8h8.8v-3.5h-8.8V122.8z M75,129.7l-6.8,0.2l-0.5-0.6
		l0.2-7.2v-10.8l-0.2-7.5l0.5-0.5l6.8,0.2h11.8l6.9-0.2l0.4,0.5l-0.2,8.6v24.4l0.3,18.4c0,5.5-3.5,7.5-10.9,7.5h-1.9
		c-1.3,0-1.5-0.3-1.8-1l-2.8-7.7c2.4,0,5.7-0.1,7.5-0.3c0.8-0.1,0.9-0.4,0.9-1.9v-22.2H75V129.7z M85.1,113.5v-3.3H76v3.3H85.1z
		 M76,122.8h9.2v-3.5H76V122.8z"/>
</g>
</svg>
